<svg class="svg-inline--fa mr-2 w-auto text-svg-sm md:text-svg-md" viewBox="0 0 30 26" xmlns="http://www.w3.org/2000/svg" width="30px" height="26px"><path d="m29.205,12.997a0.809,0.809 0 0 0 -0.275,-0.609l-13.768,-12.185a0.814,0.814 0 0 0 -1.075,0l-13.767,12.188a0.73,0.73 0 0 0 -0.321,0.606a0.812,0.812 0 0 0 0.815,0.812a0.8,0.8 0 0 0 0.535,-0.2l1.9,-1.677l0,10a4.068,4.068 0 0 0 4.064,4.065l14.579,0a4.018,4.018 0 0 0 4.017,-4.017l0,-10l1.991,1.63a0.78,0.78 0 0 0 1.305,-0.613zm-4.876,-2.435l0,11.375a2.431,2.431 0 0 1 -2.392,2.438l-14.624,0a2.4,2.4 0 0 1 -2.392,-2.438l0,-11.375c0,-0.019 -0.01,-0.035 -0.011,-0.054l9.715,-8.611l9.76,8.613c0,0.017 -0.056,0.032 -0.056,0.052z"></path></svg>